<?xml version="1.0" standalone="no"?>
<!DOCTYPE svg PUBLIC "-//W3C//DTD SVG 20010904//EN"
 "http://www.w3.org/TR/2001/REC-SVG-20010904/DTD/svg10.dtd">
<svg version="1.0" xmlns="http://www.w3.org/2000/svg"
 width="1264.000000pt" height="820.000000pt" viewBox="0 0 1264.000000 820.000000"
 preserveAspectRatio="xMidYMid meet">

<g transform="translate(0.000000,820.000000) scale(0.100000,-0.100000)"
fill="#000000" stroke="none">
<path d="M6477 5963 c-4 -3 -7 -240 -7 -525 l0 -518 135 0 135 0 0 525 0 525
-128 0 c-71 0 -132 -3 -135 -7z"/>
<path d="M7487 5963 c-4 -3 -7 -240 -7 -525 l0 -518 130 0 130 0 0 244 0 244
31 11 c18 6 53 11 80 11 39 0 51 -4 68 -26 20 -25 21 -39 21 -255 l0 -229 136
0 136 0 -4 283 -3 282 -28 58 c-23 47 -38 63 -80 87 -27 16 -71 31 -97 35 -61
8 -153 -9 -212 -40 l-48 -24 0 184 0 185 -123 0 c-68 0 -127 -3 -130 -7z"/>
<path d="M7028 5822 l-118 -25 0 -74 0 -73 -45 0 -45 0 0 -115 0 -115 44 0 43
0 5 -163 c4 -148 7 -167 30 -218 32 -70 75 -103 159 -125 70 -18 177 -15 238
7 l34 12 -7 106 c-4 58 -8 107 -10 108 -2 2 -15 -1 -30 -7 -43 -16 -91 -12
-120 11 -26 20 -26 22 -26 145 l0 124 84 0 c99 0 91 -10 101 133 l7 97 -96 0
-96 0 0 100 c0 117 16 109 -152 72z"/>
<path d="M5130 5657 c-192 -44 -306 -211 -286 -417 17 -160 117 -273 286 -321
72 -21 282 -17 355 7 l60 20 3 113 3 113 -23 -5 c-116 -30 -171 -38 -234 -34
-78 4 -139 29 -162 65 l-14 22 221 0 221 0 0 94 c0 131 -19 186 -90 257 -41
41 -68 59 -110 72 -76 23 -165 29 -230 14z m155 -199 c15 -14 28 -38 32 -60
l6 -38 -108 0 -107 0 7 28 c9 39 33 72 58 82 40 16 85 11 112 -12z"/>
<path d="M5855 5660 c-33 -6 -83 -17 -111 -26 l-52 -16 6 -111 c2 -62 6 -113
7 -115 2 -2 12 1 22 6 11 6 57 18 103 28 124 25 216 9 239 -43 18 -40 14 -56
-11 -49 -13 4 -61 10 -109 13 -141 9 -241 -31 -288 -116 -32 -59 -33 -157 -2
-219 55 -107 224 -143 367 -78 68 31 64 31 64 6 0 -19 7 -20 125 -20 l125 0 0
238 c0 182 -4 252 -15 297 -25 97 -89 160 -189 190 -65 20 -203 27 -281 15z
m203 -476 c18 -5 22 -13 22 -46 0 -35 -3 -40 -35 -54 -40 -16 -83 -18 -119 -4
-20 7 -26 16 -26 41 0 49 24 69 84 69 28 0 61 -3 74 -6z"/>
<path d="M5913 4452 c-93 -33 -168 -111 -193 -202 -6 -19 -10 -179 -10 -362
l0 -328 295 0 295 0 0 333 c0 380 -2 394 -76 476 -78 86 -206 121 -311 83z
m39 -38 c-29 -14 -68 -44 -87 -66 -55 -65 -63 -106 -67 -356 -4 -225 -9 -251
-42 -239 -14 6 -16 38 -16 254 l0 248 30 52 c45 78 126 132 199 133 l35 0 -52
-26z"/>
<path d="M5140 3671 c-25 -10 -82 -40 -127 -68 -93 -57 -149 -76 -213 -71 -31
2 -49 -2 -57 -12 -11 -13 -12 -12 -13 8 0 13 -6 22 -15 22 -13 0 -15 -46 -15
-358 0 -421 0 -424 89 -513 64 -64 124 -89 210 -89 139 2 250 90 286 226 12
47 15 135 15 466 l0 408 -57 0 c-32 -1 -78 -9 -103 -19z m128 -498 c-2 -226
-6 -297 -15 -301 -10 -3 -13 61 -13 297 0 262 2 301 15 301 13 0 15 -37 13
-297z"/>
<path d="M5354 3627 c-3 -8 -3 -56 -2 -108 l3 -94 139 -3 c93 -2 143 1 152 9
18 15 20 179 2 197 -18 18 -287 17 -294 -1z"/>
<path d="M5710 3167 c0 -393 1 -400 89 -487 85 -84 183 -109 298 -75 66 20
148 93 179 160 23 49 24 55 24 393 l0 342 -295 0 -295 0 0 -333z m568 8 c-2
-218 -6 -297 -15 -307 -10 -10 -13 49 -13 295 0 272 2 307 16 307 14 0 15 -32
12 -295z"/>
<path d="M2853 2295 c-56 -24 -63 -52 -63 -255 0 -204 7 -231 65 -256 52 -21
6988 -21 7040 0 58 25 65 52 65 256 0 204 -7 231 -65 256 -51 21 -6993 20
-7042 -1z m2397 -96 c0 -13 -11 -25 -35 -35 -44 -18 -55 -18 -55 1 0 16 55 55
78 55 6 0 12 -9 12 -21z m-1636 -73 c44 -18 66 -51 66 -98 0 -83 -41 -118
-140 -118 l-60 0 0 115 0 115 50 0 c28 0 66 -6 84 -14z m253 4 c53 -19 67 -97
21 -121 -19 -10 -18 -11 6 -55 l25 -44 -35 0 c-29 0 -36 5 -56 43 l-23 42 -3
-42 c-3 -40 -5 -43 -33 -43 l-29 0 0 115 0 115 49 0 c26 0 62 -5 78 -10z m295
-29 c48 -54 31 -156 -31 -180 -59 -23 -97 -17 -137 23 -39 39 -45 86 -19 136
35 68 135 79 187 21z m265 4 c31 -36 29 -45 -12 -45 -19 0 -35 5 -35 10 0 6
-16 10 -35 10 -24 0 -37 -6 -45 -19 -35 -66 28 -130 86 -86 18 13 17 14 -18
15 -34 0 -38 3 -38 25 0 24 2 25 65 25 l65 0 0 -31 c0 -22 -10 -41 -34 -65
-29 -29 -41 -34 -81 -34 -40 0 -52 5 -82 35 -33 33 -35 39 -31 85 8 79 49 113
128 106 33 -3 50 -11 67 -31z m143 -55 c4 -71 8 -85 23 -88 36 -7 47 16 47 99
l0 79 30 0 30 0 0 -81 c0 -115 -22 -148 -98 -149 -32 0 -49 6 -67 25 -23 22
-25 32 -25 115 l0 91 28 -3 c27 -3 27 -4 32 -88z m330 65 c0 -22 -4 -25 -40
-25 -33 0 -40 -3 -40 -20 0 -16 7 -20 35 -20 31 0 35 -3 35 -25 0 -22 -4 -25
-35 -25 -28 0 -35 -4 -35 -20 0 -17 7 -20 40 -20 36 0 40 -2 40 -25 0 -24 -2
-25 -70 -25 l-70 0 0 115 0 115 70 0 c68 0 70 -1 70 -25z m183 14 c48 -22 58
-97 15 -120 -19 -10 -18 -11 6 -55 l25 -44 -35 0 c-29 0 -36 5 -56 43 l-23 42
-3 -42 c-3 -40 -5 -43 -33 -43 l-29 0 0 115 0 115 55 0 c30 0 65 -5 78 -11z
m155 -106 l3 -113 -31 0 -30 0 0 116 0 115 28 -3 27 -3 3 -112z m227 22 c52
-145 51 -135 15 -135 -23 0 -33 5 -37 20 -4 16 -14 20 -45 20 -31 0 -41 -4
-45 -20 -4 -15 -14 -20 -38 -20 l-34 0 31 83 c17 45 35 97 41 115 10 30 14 33
45 30 34 -3 35 -5 67 -93z m223 48 l21 -48 20 48 c18 41 24 47 51 47 16 0 30
-4 30 -8 0 -4 -16 -37 -35 -72 -24 -45 -35 -78 -35 -107 0 -41 -1 -43 -30 -43
-28 0 -30 3 -30 36 0 24 -14 62 -40 109 -22 40 -40 75 -40 79 0 3 15 6 34 6
30 0 35 -4 54 -47z m402 22 c0 -20 -5 -25 -24 -25 -21 0 -26 -6 -31 -43 -4
-24 -5 -64 -2 -90 l5 -47 -34 0 -34 0 0 90 c0 89 0 90 -24 90 -28 0 -40 14
-32 35 4 12 25 15 91 15 84 0 85 0 85 -25z m110 -90 l0 -115 -30 0 -30 0 0
115 0 115 30 0 30 0 0 -115z m200 90 c0 -22 -4 -25 -40 -25 -33 0 -40 -3 -40
-20 0 -16 7 -20 35 -20 31 0 35 -3 35 -25 0 -22 -4 -25 -35 -25 -28 0 -35 -4
-35 -20 0 -17 7 -20 40 -20 36 0 40 -2 40 -25 0 -24 -2 -25 -70 -25 l-70 0 0
115 0 115 70 0 c68 0 70 -1 70 -25z m145 -37 l40 -63 5 60 c5 57 7 60 33 63
l27 3 0 -115 0 -116 -29 0 c-24 0 -35 10 -70 63 l-41 62 0 -62 0 -63 -30 0
-30 0 0 115 0 115 28 0 c22 0 34 -11 67 -62z m309 48 c44 -18 66 -51 66 -98 0
-83 -41 -118 -140 -118 l-60 0 0 115 0 115 50 0 c28 0 66 -6 84 -14z m287 -96
c21 -58 39 -108 39 -112 0 -5 -14 -8 -31 -8 -22 0 -32 5 -36 20 -4 16 -14 20
-45 20 -31 0 -41 -4 -45 -20 -4 -15 -14 -20 -38 -20 l-34 0 31 83 c17 45 35
97 41 115 10 30 14 33 45 30 34 -3 35 -4 73 -108z m254 48 l40 -63 5 60 c5 57
7 60 33 63 l27 3 0 -115 0 -116 -29 0 c-24 0 -35 10 -70 63 l-41 62 0 -62 0
-63 -30 0 -30 0 0 115 0 115 28 0 c22 0 34 -11 67 -62z m336 -48 c21 -58 38
-108 38 -112 1 -5 -13 -8 -30 -8 -22 0 -32 5 -36 20 -4 16 -14 20 -45 20 -31
0 -41 -4 -45 -20 -4 -15 -14 -20 -38 -20 l-34 0 31 83 c17 45 35 97 41 115 10
30 14 33 45 30 35 -3 36 -4 73 -108z m249 85 c0 -21 -5 -25 -29 -25 l-28 0 1
-87 1 -88 -32 -3 -33 -3 0 90 0 91 -30 0 c-22 0 -30 5 -30 18 0 29 8 32 97 32
82 0 83 0 83 -25z m108 -62 c2 -72 5 -83 23 -88 37 -12 49 11 49 96 l0 79 30
0 30 0 0 -81 c0 -115 -22 -148 -98 -149 -32 0 -49 6 -67 25 -23 22 -25 32 -25
115 l0 91 28 -3 c27 -3 27 -4 30 -85z m325 76 c48 -22 58 -97 15 -120 -19 -10
-18 -11 6 -55 l25 -44 -35 0 c-29 0 -36 5 -56 43 l-23 42 -3 -42 c-3 -40 -5
-43 -33 -43 l-29 0 0 115 0 115 55 0 c30 0 65 -5 78 -11z m157 -104 l0 -115
-30 0 -30 0 0 115 0 115 30 0 30 0 0 -115z m194 94 c35 -28 34 -49 -3 -49 -17
0 -33 5 -36 10 -9 15 -35 12 -35 -5 0 -8 20 -23 45 -34 91 -40 73 -134 -26
-133 -43 1 -89 31 -89 59 0 15 56 18 65 3 9 -15 45 -12 45 4 0 7 -20 21 -45
31 -68 26 -84 67 -40 110 30 31 82 33 119 4z m236 -4 c0 -20 -5 -25 -24 -25
-30 0 -38 -21 -36 -93 3 -87 3 -87 -30 -87 l-30 0 0 90 0 90 -30 0 c-22 0 -30
5 -30 18 0 29 8 32 97 32 82 0 83 0 83 -25z m225 -70 c52 -145 51 -135 15
-135 -23 0 -33 5 -37 20 -4 16 -14 20 -45 20 -31 0 -41 -4 -45 -20 -4 -15 -14
-20 -38 -20 l-34 0 31 83 c17 45 35 97 41 115 10 30 14 33 45 30 34 -3 35 -5
67 -93z"/>
<path d="M3540 2020 c0 -57 1 -60 24 -60 34 0 56 25 56 64 0 39 -15 56 -52 56
-28 0 -28 -1 -28 -60z"/>
<path d="M3800 2066 c0 -21 5 -26 26 -26 21 0 25 4 22 23 -2 14 -11 23 -25 25
-19 3 -23 -1 -23 -22z"/>
<path d="M4030 2061 c-15 -30 -12 -66 8 -84 52 -48 116 19 82 84 -7 13 -21 19
-45 19 -24 0 -38 -6 -45 -19z"/>
<path d="M5010 2066 c0 -21 5 -26 26 -26 21 0 25 4 22 23 -2 14 -11 23 -25 25
-19 3 -23 -1 -23 -22z"/>
<path d="M5386 2036 c-8 -31 -1 -46 20 -46 11 0 13 6 8 23 -13 45 -21 51 -28
23z"/>
<path d="M6780 2020 c0 -57 1 -60 24 -60 34 0 56 25 56 64 0 39 -15 56 -52 56
-28 0 -28 -1 -28 -60z"/>
<path d="M7057 2039 c-11 -39 -8 -48 13 -46 15 1 19 6 14 22 -13 42 -21 48
-27 24z"/>
<path d="M7647 2039 c-11 -39 -8 -48 13 -46 15 1 19 6 14 22 -13 42 -21 48
-27 24z"/>
<path d="M8340 2066 c0 -21 5 -26 26 -26 21 0 25 4 22 23 -2 14 -11 23 -25 25
-19 3 -23 -1 -23 -22z"/>
<path d="M9146 2036 c-8 -31 -1 -46 20 -46 11 0 13 6 8 23 -13 45 -21 51 -28
23z"/>
</g>
</svg>
